<?xml version="1.0" encoding="iso-8859-1"?>
<!-- Generator: Adobe Illustrator 21.0.0, SVG Export Plug-In . SVG Version: 6.00 Build 0)  -->
<svg xmlns="http://www.w3.org/2000/svg" xmlns:xlink="http://www.w3.org/1999/xlink" version="1.1" id="Capa_1" x="0px" y="0px" viewBox="0 0 512.563 512.563" style="enable-background:new 0 0 512.563 512.563;" xml:space="preserve" width="512" height="512">
<g>
	<g>
		<path d="M392.586,263.325l-10.607-10.607L216.942,417.756l-77.231,0.795l-41.758-41.758l44.899-44.899l33.003,33.003    l-15.617,15.617l10.607,10.607l15.617-15.617l12.83,12.83l10.607-10.607l-12.83-12.83l35.675-35.675l12.83,12.83l10.607-10.607    l-12.83-12.83l35.675-35.675l12.829,12.83l10.607-10.607l-12.83-12.83l35.675-35.675l12.83,12.83l10.607-10.607l-12.83-12.83    l35.676-35.676l12.83,12.83l10.607-10.607l-12.83-12.83l35.675-35.675l12.83,12.83l10.607-10.607l-12.83-12.83l32.425-32.425    l-10.607-10.607l-32.425,32.425l-33.003-33.003l32.425-32.425l-10.607-10.607l-32.425,32.425L356.77,61.772L346.163,72.38    l17.494,17.494l-35.675,35.675l-17.494-17.494l-10.607,10.607l17.494,17.494l-40.249,40.249l2.435-48.424l-14.98-0.754    l-3.269,64.976L75.997,376.05l27.969,27.969l-13.376,13.376l-19.632-19.632L5.606,463.112l49.45,49.45l54.748-54.748    l17.056,17.056l104.497-2.435l72.915-72.913l-10.607-10.607L225,457.581l-92.071,2.146l-31.729-31.729l13.373-13.372l18.99,18.99    c4.495-0.046-6.515-0.032,88.772-0.039l127.294-127.293l24.206,2.463l-68.79,68.789l10.607,10.607l91.122-91.121l-43.461-4.423    L392.586,263.325z M186.462,354.289l-33.003-33.003l35.675-35.675l33.003,33.003L186.462,354.289z M232.744,308.006    l-33.003-33.003l35.675-35.675l33.003,33.003L232.744,308.006z M279.027,261.724l-33.003-33.003    c1.755-1.755-4.661,4.661,35.675-35.675l33.003,33.003L279.027,261.724z M374.264,100.481l33.003,33.003l-35.675,35.675    l-33.003-33.003L374.264,100.481z M360.984,179.766l-35.676,35.676l-33.003-33.003l35.675-35.675L360.984,179.766z M55.056,491.35    l-28.237-28.237l44.138-44.138l28.237,28.237L55.056,491.35z"/>
		<path d="M446.801,0l-88.805,0.007l-77.418,77.418l0.773-38.768C277.58,42.429,36.785,283.222,32.836,287.173l-0.644,91.634    l14.291,14.292l10.607-10.607l-9.855-9.854l0.558-79.208L265.61,75.612l-0.606,30.45l14.998,0.295l0.145-7.286l84.063-84.065    L440.588,15l51.368,51.368l-0.007,76.379l-95.997,95.996l10.607,10.607L506.95,148.96l0.007-88.805L446.801,0z"/>
	</g>
	<g>
		<path d="M146.037,263.561l-10.605-10.607l10.607-10.606l10.605,10.607L146.037,263.561z M163.716,245.883l-10.607-10.607    l10.606-10.606l10.607,10.607L163.716,245.883z"/>
	</g>
</g>















</svg>
