<?xml version="1.0" encoding="iso-8859-1"?>
<!-- Generator: Adobe Illustrator 22.1.0, SVG Export Plug-In . SVG Version: 6.00 Build 0)  -->
<svg xmlns="http://www.w3.org/2000/svg" xmlns:xlink="http://www.w3.org/1999/xlink" version="1.1" id="Layer_1_1_" x="0px" y="0px" viewBox="0 0 64 64" style="enable-background:new 0 0 64 64;" xml:space="preserve" width="512" height="512" fill="#ff7c07">
<g>
	<rect x="61" y="61" width="2" height="2"/>
	<rect x="1" y="61" width="2" height="2"/>
	<path d="M52,45c1.103,0,2-0.897,2-2v-2c0-1.103-0.897-2-2-2h-2V18.654c0-1.968-0.835-3.856-2.291-5.18L39,5.557V1H25v4.557   l-8.709,7.917C14.835,14.798,14,16.686,14,18.654V39h-2c-1.103,0-2,0.897-2,2v2c0,1.103,0.897,2,2,2v16H5v2h54v-2h-7V45z M50,61h-2   V45h2V61z M46,45.175l-14,11.53l-14-11.53V45h28V45.175z M18,47.766l14,11.529l14-11.529V61H18V47.766z M16.309,17H22v4h-6v-2.346   C16,18.083,16.122,17.529,16.309,17z M48,18.654V21h-6v-4h5.691C47.878,17.529,48,18.083,48,18.654z M40,21H24v-4h16V21z M40,23v4   H24v-4H40z M22,23v4h-6v-4H22z M22,29v4h-6v-4H22z M24,29h16v4H24V29z M40,35v4H24v-4H40z M42,35h6v4h-6V35z M48,33h-6v-4h6V33z    M48,27h-6v-4h6V27z M37,3v2H27V3H37z M26.387,7h11.227l8.75,7.954c0.015,0.014,0.026,0.032,0.041,0.046H17.596   c0.015-0.014,0.026-0.032,0.041-0.046L26.387,7z M12,41h4v-6h6v4h-4v2h34v2H12V41z M14,45h2v16h-2V45z"/>
</g>
</svg>
