<?xml version="1.0" encoding="iso-8859-1"?>
<!-- Generator: Adobe Illustrator 19.0.0, SVG Export Plug-In . SVG Version: 6.00 Build 0)  -->
<svg version="1.1" id="Layer_1" xmlns="http://www.w3.org/2000/svg" xmlns:xlink="http://www.w3.org/1999/xlink" x="0px" y="0px" fill="#000000"
	 viewBox="0 0 512.001 512.001" style="enable-background:new 0 0 512.001 512.001;" xml:space="preserve">
<g>
	<g>
		<g>
			<path d="M264.535,443.734h-85.333c-4.719,0-8.533,3.823-8.533,8.533s3.814,8.533,8.533,8.533h85.333
				c4.719,0,8.533-3.823,8.533-8.533S269.254,443.734,264.535,443.734z"/>
			<path d="M204.801,332.801c0-51.755-42.112-93.867-93.867-93.867c-51.755,0-93.867,42.112-93.867,93.867
				s42.112,93.867,93.867,93.867C162.689,426.667,204.801,384.555,204.801,332.801z M34.135,332.801c0-42.342,34.449-76.8,76.8-76.8
				c42.351,0,76.8,34.458,76.8,76.8s-34.449,76.8-76.8,76.8C68.584,409.601,34.135,375.143,34.135,332.801z"/>
			<path d="M128.001,443.734H8.535c-4.719,0-8.533,3.823-8.533,8.533s3.814,8.533,8.533,8.533h119.467
				c4.719,0,8.533-3.823,8.533-8.533S132.72,443.734,128.001,443.734z"/>
			<path d="M119.724,332.801c0-4.71-3.823-8.533-8.533-8.533h-0.094c-4.702,0-8.482,3.823-8.482,8.533s3.857,8.533,8.576,8.533
				C115.901,341.334,119.724,337.511,119.724,332.801z"/>
			<path d="M153.601,332.801c0-23.526-19.14-42.667-42.667-42.667c-23.526,0-42.667,19.14-42.667,42.667
				c0,23.526,19.14,42.667,42.667,42.667C134.461,375.467,153.601,356.327,153.601,332.801z M85.335,332.801
				c0-14.114,11.486-25.6,25.6-25.6c14.114,0,25.6,11.486,25.6,25.6s-11.486,25.6-25.6,25.6
				C96.821,358.401,85.335,346.915,85.335,332.801z"/>
			<path d="M418.135,426.667c32.93,0,59.733-26.795,59.733-59.733c0-32.939-26.803-59.733-59.733-59.733
				c-32.93,0-59.733,26.795-59.733,59.733C358.401,399.873,385.205,426.667,418.135,426.667z M418.135,324.267
				c23.526,0,42.667,19.14,42.667,42.667c0,23.526-19.14,42.667-42.667,42.667c-23.526,0-42.667-19.14-42.667-42.667
				C375.468,343.408,394.608,324.267,418.135,324.267z"/>
			<path d="M418.135,392.534c14.114,0,25.6-11.486,25.6-25.6s-11.486-25.6-25.6-25.6c-14.114,0-25.6,11.486-25.6,25.6
				S404.021,392.534,418.135,392.534z M418.135,358.401c4.71,0,8.533,3.831,8.533,8.533c0,4.702-3.823,8.533-8.533,8.533
				c-4.71,0-8.533-3.831-8.533-8.533C409.601,362.232,413.424,358.401,418.135,358.401z"/>
			<path d="M469.335,204.801h-25.6v-42.667c0-4.71-3.814-8.533-8.533-8.533s-8.533,3.823-8.533,8.533v42.667h-87.714L289.691,57.037
				c-1.161-3.49-4.412-5.837-8.09-5.837H110.935c-4.25,0-7.851,3.123-8.448,7.322L85.42,177.989
				c-0.666,4.668,2.569,8.994,7.236,9.66c4.685,0.666,8.994-2.569,9.66-7.236l16.017-112.145h36.949l32.648,146.918
				c0.879,3.9,4.335,6.682,8.337,6.682h273.067c12.68,0,21.402,6.4,24.38,17.067h-75.58c-4.719,0-8.533,3.823-8.533,8.533
				s3.814,8.533,8.533,8.533h76.8v17.067h-76.8c-4.719,0-8.533,3.823-8.533,8.533s3.814,8.533,8.533,8.533h76.8v76.8
				c0,4.71,3.814,8.533,8.533,8.533s8.533-3.823,8.533-8.533V247.467C512.001,222.345,494.457,204.801,469.335,204.801z
				 M286.875,204.801l10.889-21.786c2.116-4.216,0.401-9.344-3.814-11.452c-4.224-2.108-9.336-0.401-11.443,3.823l-14.711,29.414
				h-64.683L172.776,68.267h102.673l45.517,136.533H286.875z"/>
			<path d="M503.468,443.734H366.935c-4.719,0-8.533,3.823-8.533,8.533s3.814,8.533,8.533,8.533h136.533
				c4.719,0,8.533-3.823,8.533-8.533S508.187,443.734,503.468,443.734z"/>
			<path d="M332.801,443.734h-17.067c-4.719,0-8.533,3.823-8.533,8.533s3.814,8.533,8.533,8.533h17.067
				c4.719,0,8.533-3.823,8.533-8.533S337.52,443.734,332.801,443.734z"/>
			<path d="M332.801,238.934c-4.719,0-8.533,3.823-8.533,8.533v110.933h-85.333v-25.6c0-23.296-6.323-46.106-18.295-65.971
				c-23.398-38.835-64.401-62.029-109.705-62.029S24.629,227.994,1.23,266.829c-2.44,4.045-1.135,9.284,2.901,11.716
				c4.028,2.432,9.276,1.126,11.708-2.901c20.284-33.673,55.834-53.777,95.095-53.777c39.262,0,74.812,20.105,95.096,53.777
				c10.359,17.195,15.838,36.966,15.838,57.156v34.133c0,4.71,3.814,8.533,8.533,8.533h102.4c4.719,0,8.533-3.823,8.533-8.533
				V247.467C341.335,242.757,337.52,238.934,332.801,238.934z"/>
		</g>
	</g>
</g>
<g>
</g>
<g>
</g>
<g>
</g>
<g>
</g>
<g>
</g>
<g>
</g>
<g>
</g>
<g>
</g>
<g>
</g>
<g>
</g>
<g>
</g>
<g>
</g>
<g>
</g>
<g>
</g>
<g>
</g>
</svg>
