<svg xmlns="http://www.w3.org/2000/svg" viewBox="0 0 512.563 512.563" width="512" height="512"><path d="M392.586 263.325l-10.607-10.607-165.037 165.038-77.231.795-41.758-41.758 44.899-44.899 33.003 33.003-15.617 15.617 10.607 10.607 15.617-15.617 12.83 12.83 10.607-10.607-12.83-12.83 35.675-35.675 12.83 12.83 10.607-10.607-12.83-12.83 35.675-35.675 12.829 12.83 10.607-10.607-12.83-12.83 35.675-35.675 12.83 12.83 10.607-10.607-12.83-12.83 35.676-35.676 12.83 12.83 10.607-10.607-12.83-12.83 35.675-35.675 12.83 12.83 10.607-10.607-12.83-12.83 32.425-32.425-10.607-10.607-32.425 32.425-33.003-33.003 32.425-32.425-10.607-10.607-32.425 32.425-17.492-17.497-10.607 10.608 17.494 17.494-35.675 35.675-17.494-17.494-10.607 10.607 17.494 17.494-40.249 40.249 2.435-48.424-14.98-.754-3.269 64.976L75.997 376.05l27.969 27.969-13.376 13.376-19.632-19.632-65.352 65.349 49.45 49.45 54.748-54.748 17.056 17.056 104.497-2.435 72.915-72.913-10.607-10.607L225 457.581l-92.071 2.146-31.729-31.729 13.373-13.372 18.99 18.99c4.495-.046-6.515-.032 88.772-.039l127.294-127.293 24.206 2.463-68.79 68.789 10.607 10.607 91.122-91.121-43.461-4.423 29.273-29.274zm-206.124 90.964l-33.003-33.003 35.675-35.675 33.003 33.003-35.675 35.675zm46.282-46.283l-33.003-33.003 35.675-35.675 33.003 33.003-35.675 35.675zm46.283-46.282l-33.003-33.003 35.675-35.675 33.003 33.003-35.675 35.675zm95.237-161.243l33.003 33.003-35.675 35.675-33.003-33.003 35.675-35.675zm-13.28 79.285l-35.676 35.676-33.003-33.003 35.675-35.675 33.004 33.002zM55.056 491.35l-28.237-28.237 44.138-44.138 28.237 28.237-44.138 44.138z"/><path d="M446.801 0l-88.805.007-77.418 77.418.773-38.768C277.58 42.429 36.785 283.222 32.836 287.173l-.644 91.634 14.291 14.292 10.607-10.607-9.855-9.854.558-79.208L265.61 75.612l-.606 30.45 14.998.295.145-7.286 84.063-84.065L440.588 15l51.368 51.368-.007 76.379-95.997 95.996 10.607 10.607L506.95 148.96l.007-88.805L446.801 0z"/><path d="M146.037 263.561l-10.605-10.607 10.607-10.606 10.605 10.607-10.607 10.606zm17.679-17.678l-10.607-10.607 10.606-10.606 10.607 10.607-10.606 10.606z"/></svg>