<svg xmlns="http://www.w3.org/2000/svg" viewBox="0 0 490.348 490.348"><path d="M455.922 475.348h-50.975V459.98c0-35.193-9.385-62.355-27.894-80.733a79.549 79.549 0 0 0-4.492-4.129c1.695-1.941 3.157-4.249 4.376-6.71 1.112 1.109 2.173 2.032 3.094 2.723 5.26 3.95 14.629 5.749 21.108 5.749 9.103 0 13.493-3.301 15.573-6.07 4.449-5.923 2.599-14.276.263-20.241-1.994-5.092-5.715-11.727-10.177-15.078-.979-.736-2.152-1.482-3.455-2.202 4.408-4.083 8.709-9.851 7.788-16.331-1.501-10.552-16.73-16.789-26.41-17.938a12.191 12.191 0 0 0-.107-1.979c-1.669-11.734-20.314-18.135-29.427-18.135-.9 0-1.761.058-2.558.171-4.569.649-10.746 2.896-15.924 6.61 11.709-20.4 14.487-38.757 14.607-39.593.052-.356.078-.716.078-1.076v-1.606c5.268-1.299 9.851-4.017 13.49-8.046 10.618-11.757 10.002-30.306 9.243-37.734-.576-5.655-3.134-10.4-7.398-13.722-4.664-3.635-10.552-4.905-15.336-5.257v-7.803c33.022-2.048 54.927-18.41 67.739-32.281 14.726-15.944 20.772-31.883 21.023-32.554.016-.042.025-.084.04-.126.051-.144.096-.289.138-.436.026-.091.053-.182.075-.273.032-.131.058-.263.083-.396.02-.105.042-.21.058-.315.017-.111.024-.223.035-.335.047-.467.049-.932.009-1.391-.009-.107-.016-.214-.029-.32-.015-.11-.036-.218-.056-.327-.022-.123-.042-.245-.069-.367-.023-.098-.05-.194-.076-.291a7.778 7.778 0 0 0-.113-.388c-.03-.091-.064-.18-.097-.269a8.217 8.217 0 0 0-.153-.382c-.039-.091-.082-.18-.125-.27a7.04 7.04 0 0 0-.345-.634 8.898 8.898 0 0 0-.407-.602c-.025-.035-.048-.072-.075-.107a8.863 8.863 0 0 0-.263-.322l-.002-.002c-3.146-3.705-16.35-14.078-65.108-14.078-10.862 0-29.876-2.108-35.172-16.23C321.544 22.932 304.34 0 287.368 0c-16.413 0-34.775 7.404-42.193 10.729C237.756 7.404 219.394 0 202.98 0c-16.971 0-34.175 22.931-51.134 68.157-5.295 14.122-24.309 16.23-35.171 16.23-22.246 0-59.934 2.07-66.167 15.679a7.53 7.53 0 0 0-.381.891l-.006.024a7.52 7.52 0 0 0-.278 1.104c-.048.27-.083.542-.102.818-.002.034-.007.068-.009.103-.016.31-.011.622.012.935.004.062.014.122.02.183a7.51 7.51 0 0 0 .16.978c.061.263.137.524.228.784.013.036.021.072.034.107l.007.023c.25.671 6.298 16.609 21.024 32.554 12.812 13.872 34.717 30.233 67.739 32.281v7.789c-4.815.335-10.792 1.591-15.514 5.271-4.263 3.322-6.822 8.067-7.399 13.723-.757 7.429-1.374 25.978 9.245 37.734 3.679 4.074 8.326 6.804 13.667 8.085v1.567c0 .36.026.72.078 1.076.131.907 3.387 22.474 17.82 44.884 9.258 14.375 24.462 30.956 48.519 40.897-.059.38-.099.767-.099 1.163v22.734h-37.518c-1.244.015-30.87.051-54.46 23.474-18.509 18.377-27.894 45.54-27.894 80.733v15.368H34.426a7.5 7.5 0 0 0 0 15h421.497a7.501 7.501 0 0 0-.001-15.001zm-65.975-15.368v15.368h-37.659v-96.09a64.39 64.39 0 0 1 14.196 10.634c15.569 15.458 23.463 39.039 23.463 70.088zm-144.773-45.034c25.598 0 46.753-19.339 49.651-44.171h15.543v62.547H180.341v-62.547h15.182c2.898 24.832 24.053 44.171 49.651 44.171zm81.457-92.092c.73-2.098 2.025-4.658 4.042-4.945.154-.022.299-.033.442-.033 3.682 0 8.064 8.105 8.761 13.003.47 3.308-2.797 12.092-5.271 14.69-3.1-1.804-8.686-9.33-9.156-12.639-.261-1.834-.17-6.192 1.182-10.076zm26.517 19.917c.73-2.098 2.025-4.658 4.042-4.945.154-.022.299-.033.442-.033 3.682 0 8.064 8.105 8.761 13.003.47 3.308-2.797 12.091-5.271 14.689-3.101-1.805-8.686-9.33-9.156-12.639-.261-1.834-.171-6.192 1.182-10.075zm-42.55-7.728c.803 5.642 5.977 14.973 12.761 20.741a31.3 31.3 0 0 0-.713-.01h-37.571V333.04c0-.396-.04-.783-.1-1.163 11.885-4.911 21.604-11.443 29.518-18.528a29.512 29.512 0 0 0-2.026 4.571c-2.257 6.473-2.417 13.27-1.869 17.123zM172.841 448.322h145.028a7.5 7.5 0 0 0 7.5-7.5V370.92c2.567.222 6.809.789 11.919 2.211v102.217H153.422V372.961c5.165-1.395 9.413-1.902 11.918-2.084v69.945a7.502 7.502 0 0 0 7.501 7.5zm228.298-86.441c-5.466 0-10.86-1.812-12.1-2.743-1.482-1.113-4.501-4.259-6.29-7.962-.967-2-1.86-4.725-.64-6.353l.001-.001a.008.008 0 0 0 .002-.004c.285-.379 1.041-1.376 3.836-1.376 4.214 0 9.585 2.349 11.843 4.044 2.661 1.999 6.544 10.466 6.657 14.075-.67.161-1.755.32-3.309.32zm-17.83-33.608c-.316.045-1.005.121-2.051.121-5.12 0-12.477-1.857-12.972-5.344-.287-2.017 1.811-3.973 3.622-5.26 3.352-2.381 7.513-3.683 9.349-3.943.024-.003.164-.022.446-.022 4.384 0 11.898 3.081 14.241 5.296-1.807 3.101-9.328 8.682-12.635 9.152zm-28.567-34.343c.025-.003.165-.022.446-.022 4.383 0 11.897 3.081 14.24 5.296-1.809 3.101-9.33 8.682-12.637 9.152-.316.045-1.005.121-2.051.121-5.12 0-12.476-1.857-12.971-5.344-.561-3.947 8.242-8.53 12.973-9.203zm2.765-98.188c.724.564 1.492 1.412 1.696 3.414.892 8.739-.072 20.2-5.453 26.158a11.917 11.917 0 0 1-2.358 2.009v-33.6c2.309.268 4.631.863 6.115 2.019zm-6.115-39.933v-10.444c25.465-5.275 44.292-11.99 57.797-18.241-11.78 13.156-30.379 26.695-57.797 28.685zM116.675 99.388c25.459 0 42.938-9.221 49.216-25.964C180.944 33.283 195.669 15 202.98 15c17.136 0 38.629 10.611 38.844 10.718.065.032.131.056.197.086.081.038.164.073.247.108.151.063.302.123.455.176.066.023.134.043.201.065.17.054.34.103.511.144.056.013.113.024.169.036.181.039.362.074.544.099.058.008.116.013.175.02.179.02.357.037.536.044.073.003.145.002.218.003a7.3 7.3 0 0 0 .491-.007c.091-.005.182-.015.273-.023.146-.013.291-.027.436-.049.104-.015.207-.036.311-.056.134-.026.268-.052.399-.085.105-.026.209-.057.314-.088.133-.04.266-.081.396-.127.098-.035.193-.073.289-.112.138-.056.273-.114.407-.178.043-.021.087-.035.13-.057.216-.106 21.709-10.717 38.845-10.717 7.313 0 22.038 18.283 37.089 58.424 6.279 16.743 23.758 25.964 49.217 25.964 24.149 0 38.017 2.712 45.621 5.168-6.06 3.932-15.658 9.21-29.672 14.461-46.295 17.348-104.104 20.989-144.448 20.989-40.344 0-98.153-3.642-144.449-20.989-14.526-5.443-24.308-10.916-30.317-14.882 7.013-2.211 20.645-4.747 46.266-4.747zm-34.064 29.408a91.345 91.345 0 0 1-1.571-1.729c13.513 6.267 32.375 13.007 57.916 18.297v10.433c-22.09-1.56-41.027-10.606-56.345-27.001zm53.809 96.518c-5.38-5.957-6.345-17.419-5.454-26.158.203-1.993.963-2.837 1.68-3.401 1.518-1.193 3.926-1.794 6.309-2.051v33.729a11.822 11.822 0 0 1-2.535-2.119zm33.344 58.006c-11.735-18.011-15.267-35.842-15.808-38.914V148.16c24.729 4.124 54.824 6.846 91.218 6.846 36.394 0 66.489-2.722 91.218-6.845v96.244c-.548 3.109-4.085 20.923-15.808 38.916a104.526 104.526 0 0 1-2.679 3.899l-23.98-18.012a7.481 7.481 0 0 0-2.327-1.173c-.108-.137-.215-.276-.335-.407-2.792-3.061-7.512-3.301-10.57-.51-.045.039-4.597 3.985-13.574 7.07a7.501 7.501 0 1 0 4.875 14.185c6.104-2.098 10.689-4.539 13.81-6.506l22.427 16.845c-15.936 16.087-36.831 25.076-62.359 26.777h-1.394c-32.768-2.184-57.906-16.371-74.714-42.169zm73.983 57.154c.161.01.323.016.485.016h1.886c.162 0 .324-.005.485-.016 8.5-.551 16.299-1.832 23.473-3.668v26.469a7.5 7.5 0 0 0 7.5 7.5h2.107c-2.785 16.533-17.194 29.171-34.508 29.171-17.314 0-31.723-12.638-34.508-29.171h2.107a7.5 7.5 0 0 0 7.5-7.5v-26.469c7.174 1.836 14.973 3.117 23.473 3.668zM100.402 459.98c0-48.922 19.862-71.011 38.021-80.988v96.356h-38.021V459.98z"/><circle cx="191.937" cy="182.672" r="8.951"/><circle cx="298.411" cy="182.672" r="8.951"/><path d="M265.109 217.399a7.5 7.5 0 0 0-15 0c0 1.654-1.347 3-3.001 3h-3.868c-1.654 0-3-1.346-3-3a7.5 7.5 0 0 0-15 0c0 9.925 8.075 18 18 18h3.868c9.926 0 18.001-8.074 18.001-18z"/></svg>