<svg viewBox="0 0 512 512" xmlns="http://www.w3.org/2000/svg"><path d="M502 400.957c-83.516 0-165.484 34.258-224.89 93.988-3.9 3.918-3.88 10.25.035 14.14a9.967 9.967 0 0 0 7.054 2.911c2.567 0 5.133-.98 7.09-2.945 55.68-55.985 132.48-88.094 210.711-88.094 5.523 0 10-4.477 10-10 0-5.52-4.477-10-10-10zm-208.531-9.262c-3.094-4.578-9.309-5.78-13.883-2.687-42.762 28.883-78.875 65.023-107.344 107.414-3.078 4.586-1.86 10.8 2.727 13.879a10 10 0 0 0 13.879-2.727c27.023-40.246 61.316-74.562 101.933-101.996 4.574-3.09 5.778-9.305 2.688-13.883zM502 320.457c-44.707 0-88.957 7.637-131.52 22.7-5.207 1.84-7.933 7.554-6.09 12.761 1.45 4.105 5.31 6.668 9.426 6.668 1.106 0 2.23-.188 3.336-.578 40.414-14.301 82.418-21.551 124.848-21.551 5.523 0 10-4.477 10-10s-4.477-10-10-10zm0 0"/><path d="M143.277 443.379c65.79-85.777 161.024-145.336 266.11-167.656l.054-.012c30.2-6.41 61.204-9.75 92.559-9.75 5.52 0 10-4.48 10-10 0-5.524-4.48-10-10-10a470.574 470.574 0 0 0-84.602 7.691v-21.586c36.145-30.597 55.985-70.691 55.985-113.386 0-44.145-21.207-85.508-59.719-116.473a10.006 10.006 0 0 0-12.535 0C362.62 33.172 341.41 74.535 341.41 118.68c0 42.695 19.844 82.789 55.985 113.386v25.676a473.501 473.501 0 0 0-56.063 16.473v-58.55c0-2.75-1.11-5.24-2.906-7.048v-.004l-56-56.332a10.01 10.01 0 0 0-7.094-2.949H161a10 10 0 0 0-7.09 2.95l-56 56.331v.004a9.97 9.97 0 0 0-2.91 7.051v38.187a467.843 467.843 0 0 0-21-3.363v-35.648c27.332-23.512 42.328-54.176 42.328-86.844 0-34.129-16.36-66.074-46.062-89.96a10 10 0 0 0-12.532 0C28.031 61.921 11.672 93.87 11.672 128c0 32.664 14.996 63.328 42.328 86.84v33.351a472.648 472.648 0 0 0-44-2.066c-5.523 0-10 4.477-10 10s4.477 10 10 10c79.96 0 158.172 21.156 227.121 61.293a472.064 472.064 0 0 0-47.234 36.687c-55.864-28.46-117.934-43.48-179.887-43.48-5.52 0-10 4.477-10 10s4.48 10 10 10c56.371 0 112.855 13.11 164.172 38.004a472.615 472.615 0 0 0-42.527 47.074C92.746 409.391 51.863 401.125 10 401.125c-5.52 0-10 4.477-10 10s4.48 10 10 10c37.5 0 74.164 7.11 109.188 21.11a466.8 466.8 0 0 0-19.653 29.59l-15.238 24.964c-2.879 4.711-1.387 10.867 3.324 13.742A9.938 9.938 0 0 0 92.824 512a9.997 9.997 0 0 0 8.543-4.793l15.238-24.965a443.94 443.94 0 0 1 25.684-37.574c.36-.398.695-.824.988-1.29zm218.137-324.7c0-35.542 16.262-69.21 45.984-95.593 29.723 26.383 45.985 60.05 45.985 95.594 0 31.32-12.64 61.191-35.985 85.898V128c0-5.523-4.476-10-10-10-5.523 0-10 4.477-10 10v76.578c-23.347-24.707-35.984-54.578-35.984-85.898zM31.672 128c0-25.508 11.418-49.734 32.328-68.984C84.91 78.262 96.328 102.492 96.328 128c0 21.082-7.808 41.293-22.328 58.543V120c0-5.523-4.477-10-10-10-5.52 0-10 4.477-10 10v66.543C39.48 169.293 31.672 149.082 31.672 128zm275.621 77.664H221.16l-36.117-36.332h86.133zM161 173.516l31.96 32.148h-63.917zm-46 52.148h92v63.594a474.165 474.165 0 0 0-14-6.176v-33.586c0-5.52-4.477-10-10-10h-44c-5.52 0-10 4.48-10 10v11.89a474.76 474.76 0 0 0-14-3.429zm58 49.527a469.565 469.565 0 0 0-24-8.12v-7.575h24zm54 23.852v-73.379h94.336v56.313a469.34 469.34 0 0 0-50.094 24.308 468.512 468.512 0 0 0-15.379 9.035A474.166 474.166 0 0 0 227 299.043zm0 0"/><path d="M407.398 100c2.63 0 5.211-1.07 7.07-2.934a10.07 10.07 0 0 0 2.93-7.066c0-2.633-1.066-5.21-2.93-7.07a10.063 10.063 0 0 0-7.07-2.93c-2.628 0-5.21 1.066-7.066 2.93a10.06 10.06 0 0 0-2.934 7.07c0 2.629 1.07 5.207 2.934 7.066a10.067 10.067 0 0 0 7.066 2.934zm-86.8 265.27a10.087 10.087 0 0 0-2.93 7.066c0 2.64 1.07 5.21 2.93 7.07a10.07 10.07 0 0 0 7.07 2.93c2.633 0 5.21-1.066 7.07-2.93 1.86-1.86 2.93-4.43 2.93-7.07a10.07 10.07 0 0 0-2.93-7.066 10.06 10.06 0 0 0-7.07-2.934 10.07 10.07 0 0 0-7.07 2.934zm0 0"/></svg>