<svg xmlns="http://www.w3.org/2000/svg" viewBox="0 0 68.59 55.51"><g fill-rule="evenodd"><path d="M0 15.15h8.38s12.6 18 16.5 39.29h-8.79zM38 15h6.7V7.82L59.85.02v15.13h8.25v11.18h-8.18V42.9c0 4.13 7.47.75 7.47.75l1.2 10.39a40.9 40.9 0 0 1-13.41 1.36S54 44.01 44.59 26.25v-.11h-.06c-1.85-3.48-4-7.2-6.54-11.14z" fill="#aecd44"/><path d="M10 15.15s12.68 18 17 39.29h2.85l12-28.3h1.12A122 122 0 0 0 36.85 15h-5.58L23 39.45l-7.43-24.3zm42.47 39.88s-1.54-11-7.88-25.29v10.24c0 3.26-.45 13.27 7.42 15z" fill="#575556"/></g></svg>