<svg xmlns="http://www.w3.org/2000/svg" viewBox="0 0 512 512"><circle cx="81.161" cy="398.866" r="10"/><path d="M461.2 92.95h-58.838c-13.282 0-25.479 4.734-34.994 12.602V75.488c0-39.271-31.947-71.218-71.217-71.218h-66.715c-5.523 0-10 4.478-10 10v27.463c0 39.27 31.947 71.217 71.217 71.217h56.715v101.371a124.435 124.435 0 0 0-7.957-.262c-26.281 0-51.407 8.102-72.657 23.429-4.479 3.23-5.492 9.48-2.261 13.96 3.231 4.479 9.481 5.494 13.96 2.261 17.823-12.854 38.903-19.649 60.958-19.649 5.331 0 10.601.422 15.778 1.215.429.095.868.163 1.316.202 31.119 5.174 58.637 24.28 74.234 52.431a9.998 9.998 0 0 0 13.593 3.9c4.831-2.677 6.577-8.763 3.9-13.594-17.304-31.232-46.929-53.113-80.865-60.955v-32.335h48.839c30.323 0 54.994-24.67 54.994-54.994v-26.98c0-5.522-4.477-10-10-10zm-113.832 0h-56.715c-28.241 0-51.217-22.976-51.217-51.217V24.27h56.715c28.241 0 51.217 22.976 51.217 51.218V92.95zM451.2 129.931c0 19.295-15.698 34.994-34.994 34.994h-48.838v-16.98c0-19.295 15.698-34.994 34.994-34.994H451.2v16.98zm57.462 198.88c-8.728-19.767-31.911-28.744-51.678-20.021l-.149.067-65.337 30.131c-5.016 2.313-7.206 8.254-4.894 13.269 2.313 5.016 8.254 7.205 13.269 4.894l65.257-30.094c9.663-4.222 20.971.176 25.235 9.833 4.273 9.679-.125 21.029-9.803 25.303l-133.706 59.035c-21.186 9.355-45.234 8.812-65.977-1.495l-48.944-24.315c-26.08-12.957-56.317-13.641-82.954-1.88l-.962.426-36.579-82.846 50.784-22.422c24.192-10.682 51.188-11.543 76.012-2.428l98.423 36.145c8.979 3.298 13.765 13.343 10.669 22.393-3.155 9.224-13.234 14.184-22.467 11.063l-76.11-25.743c-5.232-1.77-10.907 1.037-12.677 6.269s1.037 10.907 6.269 12.677l76.11 25.743a37.514 37.514 0 0 0 12.039 1.988c15.698 0 30.409-9.882 35.76-25.521 6.587-19.254-3.595-40.627-22.697-47.642l-98.422-36.145c-29.714-10.911-62.026-9.88-90.984 2.904l-51.111 22.567a25.144 25.144 0 0 0-12.037-9.778c-6.31-2.444-13.195-2.285-19.36.437L5.986 312.392A10.002 10.002 0 0 0 0 321.552V497.73a10.003 10.003 0 0 0 10 10 9.99 9.99 0 0 0 4.508-1.074l127.46-64.389c6.061-2.757 10.716-7.686 13.125-13.905 2.007-5.18 2.259-10.747.773-16l1.192-.526c21.188-9.355 45.235-8.809 65.978 1.496l48.944 24.315c26.079 12.957 56.315 13.642 82.954 1.879l133.707-59.035c19.767-8.729 28.748-31.913 20.021-51.68zm-372.218 92.325a5.297 5.297 0 0 1-2.82 2.953c-.159.07-.315.145-.47.223L20 481.474V437.7l29.578-14.525c4.958-2.435 7.003-8.427 4.568-13.385s-8.429-7.003-13.384-4.568L20 415.417v-87.33l59.688-26.155a5.306 5.306 0 0 1 4.082-.095 5.305 5.305 0 0 1 2.954 2.82l47.038 106.532.012.028 2.577 5.836a5.304 5.304 0 0 1 .093 4.083z"/></svg>