<svg xmlns="http://www.w3.org/2000/svg" viewBox="0 0 512.001 512.001"><path d="M264.535 443.734h-85.333c-4.719 0-8.533 3.823-8.533 8.533s3.814 8.533 8.533 8.533h85.333c4.719 0 8.533-3.823 8.533-8.533s-3.814-8.533-8.533-8.533zm-59.734-110.933c0-51.755-42.112-93.867-93.867-93.867s-93.867 42.112-93.867 93.867 42.112 93.867 93.867 93.867c51.755-.001 93.867-42.113 93.867-93.867zm-170.666 0c0-42.342 34.449-76.8 76.8-76.8s76.8 34.458 76.8 76.8-34.449 76.8-76.8 76.8-76.8-34.458-76.8-76.8zm93.866 110.933H8.535c-4.719 0-8.533 3.823-8.533 8.533s3.814 8.533 8.533 8.533h119.467c4.719 0 8.533-3.823 8.533-8.533s-3.815-8.533-8.534-8.533z"/><path d="M119.724 332.801a8.536 8.536 0 0 0-8.533-8.533h-.094c-4.702 0-8.482 3.823-8.482 8.533s3.857 8.533 8.576 8.533a8.536 8.536 0 0 0 8.533-8.533z"/><path d="M153.601 332.801c0-23.526-19.14-42.667-42.667-42.667-23.526 0-42.667 19.14-42.667 42.667 0 23.526 19.14 42.667 42.667 42.667 23.527-.001 42.667-19.141 42.667-42.667zm-68.266 0c0-14.114 11.486-25.6 25.6-25.6s25.6 11.486 25.6 25.6-11.486 25.6-25.6 25.6-25.6-11.486-25.6-25.6zm332.8 93.866c32.93 0 59.733-26.795 59.733-59.733 0-32.939-26.803-59.733-59.733-59.733-32.93 0-59.733 26.795-59.733 59.733-.001 32.939 26.803 59.733 59.733 59.733zm0-102.4c23.526 0 42.667 19.14 42.667 42.667 0 23.526-19.14 42.667-42.667 42.667-23.526 0-42.667-19.14-42.667-42.667 0-23.526 19.14-42.667 42.667-42.667z"/><path d="M418.135 392.534c14.114 0 25.6-11.486 25.6-25.6s-11.486-25.6-25.6-25.6-25.6 11.486-25.6 25.6 11.486 25.6 25.6 25.6zm0-34.133c4.71 0 8.533 3.831 8.533 8.533s-3.823 8.533-8.533 8.533c-4.71 0-8.533-3.831-8.533-8.533-.001-4.702 3.822-8.533 8.533-8.533zm51.2-153.6h-25.6v-42.667c0-4.71-3.814-8.533-8.533-8.533s-8.533 3.823-8.533 8.533v42.667h-87.714L289.691 57.037a8.516 8.516 0 0 0-8.09-5.837H110.935a8.529 8.529 0 0 0-8.448 7.322L85.42 177.989c-.666 4.668 2.569 8.994 7.236 9.66a8.524 8.524 0 0 0 9.66-7.236l16.017-112.145h36.949l32.648 146.918a8.553 8.553 0 0 0 8.337 6.682h273.067c12.68 0 21.402 6.4 24.38 17.067h-75.58c-4.719 0-8.533 3.823-8.533 8.533s3.814 8.533 8.533 8.533h76.8v17.067h-76.8c-4.719 0-8.533 3.823-8.533 8.533s3.814 8.533 8.533 8.533h76.8v76.8c0 4.71 3.814 8.533 8.533 8.533s8.533-3.823 8.533-8.533V247.467c.001-25.122-17.543-42.666-42.665-42.666zm-182.46 0l10.889-21.786c2.116-4.216.401-9.344-3.814-11.452a8.519 8.519 0 0 0-11.443 3.823L267.796 204.8h-64.683L172.776 68.267h102.673L320.966 204.8h-34.091zm216.593 238.933H366.935c-4.719 0-8.533 3.823-8.533 8.533s3.814 8.533 8.533 8.533h136.533c4.719 0 8.533-3.823 8.533-8.533s-3.814-8.533-8.533-8.533zm-170.667 0h-17.067c-4.719 0-8.533 3.823-8.533 8.533s3.814 8.533 8.533 8.533h17.067c4.719 0 8.533-3.823 8.533-8.533s-3.814-8.533-8.533-8.533z"/><path d="M332.801 238.934a8.53 8.53 0 0 0-8.533 8.533V358.4h-85.333v-25.6c0-23.296-6.323-46.106-18.295-65.971-23.398-38.835-64.401-62.029-109.705-62.029S24.629 227.994 1.23 266.829a8.528 8.528 0 0 0 2.901 11.716c4.028 2.432 9.276 1.126 11.708-2.901 20.284-33.673 55.834-53.777 95.095-53.777 39.262 0 74.812 20.105 95.096 53.777 10.359 17.195 15.838 36.966 15.838 57.156v34.133a8.53 8.53 0 0 0 8.533 8.533h102.4a8.53 8.53 0 0 0 8.533-8.533V247.467a8.53 8.53 0 0 0-8.533-8.533z"/></svg>