<svg xmlns="http://www.w3.org/2000/svg" viewBox="0 0 512 512"><path d="M196.182 168.583v-12.046H40.558v27.038H0v112.206h40.558v27.036h33.88v.002h94.488v-.002h27.256v-12.046l.002.001v-142.19zm-20.633 184.654H81.062l23.795 109.285h94.488zm86.477-205.772a653.563 653.563 0 0 1-35.425 12.373v159.679a653.786 653.786 0 0 1 35.425 12.372c44.271 16.89 110.027 47.504 174.45 97.988V49.478c-64.423 50.485-130.179 81.098-174.45 97.987zm212.929 21.239h-8.063v141.947h8.063c20.426 0 37.045-16.618 37.045-37.045v-67.858c0-20.426-16.619-37.044-37.045-37.044z"/></svg>