<?xml version="1.0" encoding="UTF-8"?>
<!DOCTYPE svg PUBLIC "-//W3C//DTD SVG 1.1//EN" "http://www.w3.org/Graphics/SVG/1.1/DTD/svg11.dtd">
<!-- Creator: CorelDRAW 2018 (64-Bit) -->
<svg xmlns="http://www.w3.org/2000/svg" xml:space="preserve" width="25mm" height="20mm" version="1.1" style="shape-rendering:geometricPrecision; text-rendering:geometricPrecision; image-rendering:optimizeQuality; fill-rule:evenodd; clip-rule:evenodd"
viewBox="0 0 2500 2000"
 xmlns:xlink="http://www.w3.org/1999/xlink">
 <defs>
  <style type="text/css">
   <![CDATA[
    .fil1 {fill:#575556}
    .fil0 {fill:#AECD44}
   ]]>
  </style>
 </defs>
 <g id="Слой_x0020_1">
  <metadata id="CorelCorpID_0Corel-Layer"/>
  <path class="fil0" d="M-0 576.2l295.6 0c0,0 444.53,636.37 582.11,1385.8l-310.26 0 -567.45 -1385.8zm1340.12 -5.29l236.8 0 0 -254 534.46 -275.17 0 534.46 291.04 0 0 394.23 -288.4 0c0,0 0,439.21 0,584.74 0,145.53 263.32,26.46 263.32,26.46l42.35 366.47c0,0 -230.63,68.56 -473,48.06 -0.06,-0.57 -41.79,-402.07 -373.73,-1028.57l0 -3.73 -1.98 0c-65.21,-122.83 -141.49,-254.21 -230.86,-392.95z"/>
  <path class="fil1" d="M351.19 576.2c0,0 447.14,636.34 600.6,1385.8l100.52 0 422.73 -998.14 39.27 0c-60.97,-126.53 -132.37,-258.75 -215.89,-392.95l-195.11 0 -293.69 862.54 -261.94 -857.25 -196.49 0zm1499.82 1406.91c-0.1,-0.68 -54.39,-386.73 -278.05,-892.32l0 361.21c0,115.09 -15.88,468.32 261.94,527.85 5.36,1.15 10.73,2.22 16.11,3.26z"/>
 </g>
</svg>
