<svg id="ic2" xmlns="http://www.w3.org/2000/svg" viewBox="0 0 68.59 55.51">
<g id="ic1">
<path d="M0,16.33H8.38s12.6,18,16.5,39.29H16.09Zm38-.15H44.7V9l15.15-7.8V16.33H68.1V27.51H59.92V44.08c0,4.13,7.47.75,7.47.75l1.2,10.39a40.9,40.9,0,0,1-13.41,1.36S54,45.19,44.59,27.43v-.11h-.06c-1.85-3.48-4-7.2-6.54-11.14Z" transform="translate(0 -1.18)" style="fill:#aecd44;fill-rule:evenodd"/>
<path d="M10,16.33s12.68,18,17,39.29h2.85l12-28.3h1.12a122,122,0,0,0-6.12-11.14H31.27L23,40.63l-7.43-24.3ZM52.47,56.21s-1.54-11-7.88-25.29V41.16c0,3.26-.45,13.27,7.42,15Z" transform="translate(0 -1.18)" style="fill:#575556;fill-rule:evenodd"/>
</g>
</svg>