<svg xmlns="http://www.w3.org/2000/svg" viewBox="0 0 64 64"><path d="M52 45c1.103 0 2-.897 2-2v-2c0-1.103-.897-2-2-2h-2V18.654a7.015 7.015 0 0 0-2.291-5.18L39 5.557V1H25v4.557l-8.709 7.917A7.015 7.015 0 0 0 14 18.654V39h-2c-1.103 0-2 .897-2 2v2c0 1.103.897 2 2 2v16H5v2h54v-2h-7V45zm-2 16h-2V45h2v16zm-4-15.825l-14 11.53-14-11.53V45h28v.175zm-28 2.591l14 11.529 14-11.529V61H18V47.766zM16.309 17H22v4h-6v-2.346c0-.571.122-1.125.309-1.654zM48 18.654V21h-6v-4h5.691c.187.529.309 1.083.309 1.654zM40 21H24v-4h16v4zm0 2v4H24v-4h16zm-18 0v4h-6v-4h6zm0 6v4h-6v-4h6zm2 0h16v4H24v-4zm16 6v4H24v-4h16zm2 0h6v4h-6v-4zm6-2h-6v-4h6v4zm0-6h-6v-4h6v4zM37 3v2H27V3h10zM26.387 7h11.227l8.75 7.954c.015.014.026.032.041.046H17.596c.015-.014.026-.032.041-.046L26.387 7zM12 41h4v-6h6v4h-4v2h34v2H12v-2zm2 4h2v16h-2V45z"/></svg>